<?xml version="1.0" standalone="no"?>
<!DOCTYPE svg PUBLIC "-//W3C//DTD SVG 20010904//EN"
 "http://www.w3.org/TR/2001/REC-SVG-20010904/DTD/svg10.dtd">
<svg version="1.0" xmlns="http://www.w3.org/2000/svg"
 width="512.000000pt" height="512.000000pt" viewBox="0 0 512.000000 512.000000"
 preserveAspectRatio="xMidYMid meet">
<metadata>
Created by potrace 1.14, written by Peter Selinger 2001-2017
</metadata>
<g transform="translate(0.000000,512.000000) scale(0.100000,-0.100000)"
fill="#000000" stroke="none">
<path d="M2480 5110 c-168 -49 -317 -237 -406 -512 -14 -42 -27 -89 -30 -104
-3 -15 -7 -31 -10 -36 -5 -8 -10 -28 -19 -83 -3 -16 -8 -37 -10 -45 -2 -8 -7
-42 -11 -75 -3 -33 -8 -62 -9 -65 -2 -3 -7 -48 -10 -100 -4 -52 -8 -96 -9 -97
-1 -1 -35 26 -76 60 -295 246 -596 392 -830 402 -196 9 -324 -66 -377 -218
-21 -63 -24 -227 -4 -302 63 -237 189 -465 395 -714 32 -40 57 -73 55 -75 -2
-2 -42 -7 -89 -10 -47 -4 -96 -8 -110 -10 -14 -3 -59 -10 -100 -16 -327 -48
-641 -197 -750 -355 -167 -242 -25 -502 358 -655 97 -39 276 -90 367 -104 68
-11 177 -24 249 -31 39 -3 71 -7 72 -8 2 -1 -13 -20 -32 -42 -190 -216 -347
-490 -404 -705 -34 -125 -34 -267 0 -354 37 -96 139 -180 245 -201 231 -45
597 108 940 393 l90 75 11 -104 c19 -176 25 -211 44 -299 61 -268 150 -465
267 -585 59 -61 94 -86 153 -109 264 -104 517 137 635 607 18 73 36 156 40
186 4 30 8 61 10 70 4 24 16 151 17 194 1 42 1 42 20 24 183 -169 463 -345
649 -407 195 -64 347 -69 468 -12 144 67 204 228 167 453 -33 201 -206 517
-414 757 l-54 62 33 1 c19 0 43 2 54 4 11 2 48 6 82 9 442 39 827 220 930 436
31 66 41 161 23 226 -57 202 -349 387 -725 459 -72 14 -143 26 -185 30 -25 3
-61 7 -80 10 -19 2 -57 4 -83 4 l-48 1 63 76 c390 467 520 919 328 1138 -37
42 -119 83 -196 97 -198 37 -499 -70 -799 -285 -38 -28 -72 -53 -75 -56 -3 -3
-25 -21 -50 -41 -25 -20 -56 -46 -69 -58 -13 -12 -25 -20 -27 -19 -1 2 -5 37
-8 78 -6 78 -22 207 -31 250 -3 14 -8 39 -11 55 -21 115 -67 265 -114 370 -81
180 -207 317 -330 358 -35 12 -150 16 -180 7z m147 -201 c135 -65 277 -371
318 -684 4 -27 9 -61 11 -75 8 -50 15 -147 18 -239 2 -81 0 -97 -16 -113 -37
-37 -174 -204 -212 -258 l-38 -55 -149 1 -149 1 -56 74 c-97 128 -191 241
-217 260 -22 16 8 378 43 524 6 28 14 61 16 75 10 55 59 189 96 265 104 211
213 283 335 224z m-1462 -649 c149 -46 420 -196 554 -305 158 -129 335 -304
440 -435 33 -41 60 -79 60 -85 0 -5 -43 -31 -97 -57 -53 -26 -126 -71 -162
-100 -88 -73 -192 -205 -243 -309 l-41 -86 -73 58 c-185 145 -333 291 -455
449 -278 360 -391 703 -274 835 57 65 156 77 291 35z m3036 0 c46 -24 78 -85
82 -160 15 -263 -261 -719 -635 -1047 -78 -69 -212 -167 -215 -158 -16 47
-111 202 -158 259 -87 105 -225 209 -337 253 -24 9 -45 17 -46 19 -4 3 50 84
70 106 7 7 42 47 77 88 90 105 251 260 341 328 41 31 77 60 80 63 14 18 193
127 278 169 208 103 364 130 463 80z m-1486 -960 c63 -14 197 -66 227 -88 13
-10 35 -24 51 -31 47 -25 166 -153 213 -231 70 -117 95 -210 99 -360 4 -169
-11 -257 -66 -375 -96 -210 -320 -379 -544 -412 -254 -37 -505 46 -676 224
-91 94 -134 168 -186 318 -29 82 -35 123 -36 225 -1 114 60 297 137 414 47 69
148 169 206 203 25 14 47 29 50 33 7 8 92 43 155 64 101 33 264 40 370 16z
m-1417 -335 c4 -6 36 -35 72 -65 36 -30 67 -57 70 -60 3 -3 25 -21 50 -40 25
-19 50 -38 55 -43 6 -4 26 -19 45 -32 l34 -25 1 -153 0 -153 -65 -47 c-36 -26
-81 -61 -100 -77 -19 -17 -65 -56 -102 -87 l-68 -55 -92 1 c-92 2 -141 6 -202
15 -17 3 -58 8 -91 11 -168 19 -398 89 -528 161 -118 66 -197 160 -197 235 0
196 404 382 900 415 41 3 79 7 85 8 25 6 127 -1 133 -9z m2792 -1 c25 -3 59
-7 75 -10 17 -2 50 -6 75 -9 83 -11 280 -59 345 -84 82 -33 219 -109 262 -146
132 -115 121 -235 -33 -352 -154 -119 -477 -211 -804 -229 -52 -3 -113 -7
-136 -9 -37 -3 -46 2 -100 47 -32 28 -104 87 -159 132 -55 44 -104 85 -110 91
-6 6 -10 75 -10 164 l0 153 71 52 c60 43 167 128 184 146 3 3 22 19 42 37 l37
31 108 -4 c59 -2 128 -6 153 -10z m-2299 -945 c92 -135 259 -274 396 -328 l42
-16 -62 -82 c-34 -44 -92 -115 -129 -156 -38 -41 -68 -79 -68 -85 0 -6 -6 -15
-14 -19 -7 -4 -44 -37 -82 -72 -149 -138 -333 -266 -494 -344 -129 -62 -210
-87 -307 -94 -134 -10 -202 27 -227 123 -38 147 54 411 232 664 129 183 362
429 522 548 l82 62 34 -70 c18 -38 52 -97 75 -131z m1799 82 c30 -25 72 -63
95 -84 22 -21 52 -44 67 -52 14 -8 36 -27 47 -41 12 -15 44 -51 71 -81 28 -31
70 -81 93 -112 23 -31 48 -63 56 -71 54 -56 181 -285 228 -409 38 -101 55
-225 40 -291 -25 -105 -122 -150 -275 -126 -169 27 -432 163 -647 334 -81 65
-332 314 -391 387 -53 66 -87 115 -83 119 2 2 42 21 89 43 179 84 323 229 423
424 l40 79 46 -37 c25 -20 71 -57 101 -82z m-802 -588 c43 -56 93 -119 112
-140 90 -98 87 -93 84 -185 -4 -84 -6 -113 -24 -268 -21 -172 -78 -375 -142
-505 -78 -156 -171 -245 -258 -245 -57 0 -131 51 -193 131 -33 44 -99 177
-125 255 -25 73 -68 257 -78 334 -3 30 -8 66 -10 80 -5 32 -14 157 -18 245 -3
67 -2 70 34 109 37 41 161 192 212 257 l26 34 152 0 151 0 77 -102z"/>
<path d="M2497 3144 c-1 -1 -20 -4 -43 -7 -54 -8 -161 -49 -214 -82 -175 -110
-284 -320 -271 -522 3 -58 99 -86 141 -41 11 12 21 29 21 37 12 149 51 245
131 323 75 73 159 111 273 123 71 7 106 34 107 83 1 40 -26 82 -55 84 -44 3
-88 4 -90 2z"/>
</g>
</svg>
