<?xml version="1.0" standalone="no"?>
<!DOCTYPE svg PUBLIC "-//W3C//DTD SVG 20010904//EN"
 "http://www.w3.org/TR/2001/REC-SVG-20010904/DTD/svg10.dtd">
<svg version="1.0" xmlns="http://www.w3.org/2000/svg"
 width="512.000000pt" height="512.000000pt" viewBox="0 0 512.000000 512.000000"
 preserveAspectRatio="xMidYMid meet">
<metadata>
Created by potrace 1.14, written by Peter Selinger 2001-2017
</metadata>
<g transform="translate(0.000000,512.000000) scale(0.100000,-0.100000)"
fill="#000000" stroke="none">
<path d="M2341 5085 c-108 -52 -206 -154 -251 -261 -32 -74 -34 -88 -38 -218
l-4 -138 -47 83 c-82 146 -176 231 -301 270 -342 108 -691 -153 -675 -506 2
-38 6 -82 9 -98 10 -42 50 -128 88 -188 19 -30 37 -60 42 -66 4 -7 -31 10 -76
37 -111 66 -185 92 -279 96 -358 14 -618 -331 -510 -677 20 -64 82 -164 124
-201 29 -25 142 -99 190 -123 l38 -20 -133 -6 c-100 -4 -147 -11 -191 -27
-141 -51 -255 -161 -309 -296 -17 -45 -19 -69 -16 -201 l3 -150 37 -70 c62
-116 163 -204 281 -245 77 -27 85 -28 217 -30 l115 -1 -76 -42 c-161 -89 -238
-174 -280 -307 -107 -343 151 -689 505 -676 93 3 171 29 269 88 44 26 82 47
83 45 1 -1 -19 -39 -45 -85 -79 -135 -103 -243 -81 -371 50 -300 361 -492 658
-406 142 42 245 139 337 318 l20 38 6 -133 c6 -146 24 -212 79 -298 48 -75
132 -148 215 -186 73 -34 75 -34 214 -34 154 0 185 7 276 65 93 59 167 152
207 262 17 45 23 87 26 192 l4 133 43 -76 c71 -124 99 -157 189 -224 30 -22
117 -59 166 -69 14 -4 66 -6 115 -6 293 1 524 239 511 527 -5 106 -30 176
-116 319 -12 20 -20 37 -17 37 3 0 38 -20 78 -45 134 -83 277 -110 412 -79
233 55 404 284 392 527 -10 192 -103 331 -294 438 l-83 47 134 4 c103 4 146
10 193 26 122 45 220 131 283 247 l37 70 0 165 c0 187 -6 209 -87 311 -48 62
-65 77 -130 119 -84 56 -150 73 -296 79 l-133 6 38 20 c229 118 329 256 337
464 13 340 -292 597 -624 526 -53 -12 -193 -80 -235 -115 -30 -25 -23 -4 24
78 70 119 86 177 85 297 -1 79 -6 113 -24 160 -115 301 -469 431 -745 274 -87
-49 -134 -102 -209 -234 l-46 -80 0 115 c0 63 -6 137 -14 165 -40 153 -138
274 -276 342 -51 26 -65 28 -210 31 l-155 3 -74 -36z m329 -153 c99 -33 176
-109 212 -209 19 -53 20 -73 14 -238 -3 -99 -8 -190 -10 -202 -3 -12 -7 -48
-11 -80 -3 -33 -8 -72 -11 -89 -2 -16 -9 -56 -15 -89 -16 -97 -47 -232 -77
-345 l-29 -105 -34 2 c-47 3 -256 3 -298 0 l-35 -2 -28 105 c-35 127 -84 363
-94 445 -3 33 -8 69 -10 80 -11 57 -19 197 -19 340 0 150 2 163 25 210 43 88
134 163 225 186 47 12 146 7 195 -9z m-1020 -274 c45 -14 98 -48 131 -84 76
-84 236 -417 327 -684 41 -121 107 -359 101 -364 -2 -1 -47 -24 -99 -49 -52
-26 -121 -67 -154 -91 l-58 -44 -105 106 c-177 177 -342 382 -470 582 -117
184 -133 226 -128 325 12 221 239 372 455 303z m2079 -19 c76 -35 133 -92 170
-169 21 -45 25 -70 25 -135 0 -100 -17 -139 -156 -347 -149 -223 -265 -365
-455 -555 l-91 -91 -34 25 c-80 60 -175 114 -250 142 -33 13 -33 11 -7 108 82
303 172 539 291 763 28 52 57 106 64 120 81 156 274 217 443 139z m-2844 -728
c90 -30 358 -208 550 -366 55 -46 155 -137 222 -203 l122 -121 -33 -43 c-45
-60 -87 -132 -121 -205 -16 -35 -31 -63 -33 -63 -18 0 -286 76 -367 104 -288
100 -619 261 -692 338 -137 144 -109 387 59 517 70 53 201 72 293 42z m3541 3
c99 -29 169 -91 215 -187 60 -129 39 -277 -54 -375 -51 -54 -279 -175 -501
-267 -97 -40 -346 -126 -346 -119 0 2 -16 -2 -35 -10 -19 -8 -35 -13 -35 -11
0 3 -11 0 -25 -5 -14 -5 -36 -12 -48 -14 -12 -2 -34 -7 -48 -11 -25 -6 -28 -2
-55 61 -27 65 -125 222 -146 235 -6 4 37 53 95 110 141 139 169 165 268 244
46 37 93 74 104 83 33 27 293 202 300 202 3 0 18 9 34 21 68 50 189 69 277 43z
m-1795 -505 c30 -1 86 -10 126 -20 385 -96 651 -430 655 -824 1 -169 -49 -338
-141 -474 -118 -173 -276 -289 -481 -352 -63 -20 -97 -23 -215 -24 -77 0 -156
3 -175 7 -344 69 -605 331 -677 676 -31 154 -5 371 63 519 125 274 423 481
709 492 33 1 61 4 64 6 2 3 7 3 11 0 3 -2 31 -5 61 -6z m-1796 -522 c11 -3 47
-8 80 -11 51 -6 157 -22 277 -43 15 -2 87 -20 160 -39 73 -19 144 -37 157 -40
40 -8 43 -13 35 -72 -7 -49 -7 -149 -1 -271 l2 -34 -105 -29 c-58 -16 -148
-38 -200 -49 -99 -22 -109 -24 -175 -34 -174 -28 -360 -42 -515 -41 -129 1
-150 4 -193 25 -248 118 -271 454 -42 599 76 48 105 52 310 47 105 -2 199 -6
210 -8z m3926 -13 c221 -103 272 -396 97 -560 -86 -80 -117 -89 -313 -89 -184
1 -270 7 -425 31 -19 3 -48 7 -65 9 -16 2 -43 6 -60 9 -16 4 -43 8 -60 11 -28
5 -193 47 -310 78 -50 14 -50 14 -48 53 6 111 6 215 -1 266 -8 59 -5 64 35 72
13 3 76 19 139 35 144 38 276 65 375 76 17 2 44 6 60 9 17 3 64 8 105 11 41 4
76 8 78 9 1 2 80 2 175 2 154 -1 177 -3 218 -22z m-3119 -762 c26 -53 66 -121
88 -150 22 -29 40 -57 40 -63 0 -12 -154 -165 -265 -263 -163 -144 -417 -326
-564 -402 -64 -34 -78 -38 -154 -38 -76 -1 -89 2 -151 33 -214 109 -258 405
-83 558 73 64 384 215 616 299 108 39 386 122 416 123 6 1 31 -43 57 -97z
m2027 63 c119 -32 308 -93 356 -115 11 -5 74 -32 140 -60 66 -28 180 -83 253
-122 173 -93 229 -153 251 -273 20 -108 -18 -233 -97 -314 -105 -108 -289
-129 -414 -46 -21 14 -40 25 -43 25 -12 0 -254 166 -340 233 -158 123 -425
373 -425 397 0 6 19 36 43 68 24 32 63 100 87 150 25 51 48 92 52 92 4 0 66
-16 137 -35z m-1720 -433 c63 -49 158 -102 234 -131 33 -13 34 -9 -19 -196
-76 -272 -177 -519 -310 -757 -87 -154 -170 -210 -315 -211 -64 0 -86 4 -142
30 -80 38 -141 97 -175 172 -22 46 -26 70 -26 136 1 49 7 94 17 117 39 92 234
379 361 533 92 111 308 334 325 334 7 1 30 -12 50 -27z m1374 -65 c269 -270
563 -676 597 -824 65 -284 -272 -516 -520 -358 -65 42 -102 94 -192 270 -86
170 -224 514 -242 608 -2 12 -16 66 -31 120 -15 55 -25 100 -23 101 2 2 46 24
98 50 52 25 118 64 145 85 28 22 56 40 63 40 7 1 54 -41 105 -92z m-743 -138
c52 1 110 3 129 4 l35 2 28 -105 c40 -147 78 -330 94 -450 3 -19 7 -51 9 -70
13 -91 20 -218 20 -355 0 -136 -2 -154 -23 -196 -92 -188 -324 -255 -497 -144
-63 41 -87 67 -122 135 -27 53 -28 60 -28 205 0 213 22 437 60 615 3 14 7 34
9 45 10 48 66 265 82 313 3 11 16 12 57 6 28 -4 95 -6 147 -5z"/>
<path d="M2445 3145 c-269 -59 -451 -263 -480 -538 -6 -57 14 -112 43 -121 50
-16 64 -14 92 12 24 22 30 38 35 87 23 227 183 384 409 401 54 4 91 30 98 69
5 25 -13 78 -31 89 -21 13 -108 14 -166 1z"/>
</g>
</svg>
